<svg xmlns="http://www.w3.org/2000/svg" viewBox="0 0 1200 630" role="img" aria-labelledby="title desc">
  <title id="title">MyCompany social card</title>
  <desc id="desc">Dark share card for MyCompany featuring websites, apps, SEO, cloud architecture, monitoring, and business analysis.</desc>
  <defs>
    <linearGradient id="bg" x1="0" y1="0" x2="1" y2="1">
      <stop offset="0%" stop-color="#141819" />
      <stop offset="52%" stop-color="#0d0f10" />
      <stop offset="100%" stop-color="#070808" />
    </linearGradient>
    <linearGradient id="warm" x1="0" y1="0" x2="1" y2="1">
      <stop offset="0%" stop-color="#ffd8aa" />
      <stop offset="100%" stop-color="#f08a5d" />
    </linearGradient>
    <radialGradient id="haloA" cx="0.22" cy="0.2" r="0.5">
      <stop offset="0%" stop-color="#f08a5d" stop-opacity="0.28" />
      <stop offset="100%" stop-color="#f08a5d" stop-opacity="0" />
    </radialGradient>
    <radialGradient id="haloB" cx="0.82" cy="0.22" r="0.42">
      <stop offset="0%" stop-color="#ffd8aa" stop-opacity="0.22" />
      <stop offset="100%" stop-color="#ffd8aa" stop-opacity="0" />
    </radialGradient>
  </defs>
  <rect width="1200" height="630" fill="url(#bg)" />
  <rect width="1200" height="630" fill="url(#haloA)" />
  <rect width="1200" height="630" fill="url(#haloB)" />

  <g opacity="0.12" stroke="#ffffff" stroke-width="1">
    <path d="M0 120h1200M0 240h1200M0 360h1200M0 480h1200" />
    <path d="M180 0v630M360 0v630M540 0v630M720 0v630M900 0v630M1080 0v630" />
  </g>

  <g transform="translate(86 84)">
    <rect x="0" y="0" width="94" height="94" rx="26" fill="#090a0b" stroke="#262c2f" />
    <path
      d="M24 70V24h14l23 31 23-31h14v46H84V39L66 63H56L38 39v31z"
      fill="none"
      stroke="url(#warm)"
      stroke-linecap="round"
      stroke-linejoin="round"
      stroke-width="7"
    />
    <circle cx="79" cy="20" r="5" fill="#ffd8aa" />
  </g>

  <g font-family="Arial, sans-serif" fill="#f4f0ea">
    <text x="210" y="133" font-size="28" letter-spacing="4" opacity="0.78">MYCOMPANY</text>
    <text x="86" y="252" font-size="82" font-weight="700">Websites, apps, SEO,</text>
    <text x="86" y="340" font-size="82" font-weight="700">cloud architecture.</text>
    <text x="86" y="402" font-size="28" opacity="0.82">Business analysis, monitoring, integrations, and senior IT delivery.</text>
  </g>

  <g transform="translate(760 112)">
    <rect x="0" y="0" width="330" height="218" rx="28" fill="#0b0d0e" stroke="#2a2f32" />
    <rect x="28" y="24" width="174" height="12" rx="6" fill="#f4f0ea" opacity="0.18" />
    <rect x="28" y="52" width="274" height="78" rx="18" fill="#171b1d" />
    <rect x="28" y="146" width="228" height="10" rx="5" fill="#f4f0ea" opacity="0.14" />
    <rect x="28" y="168" width="180" height="10" rx="5" fill="#f4f0ea" opacity="0.1" />
    <rect x="28" y="188" width="118" height="12" rx="6" fill="url(#warm)" />
    <circle cx="38" cy="18" r="4" fill="#f4f0ea" opacity="0.16" />
    <circle cx="50" cy="18" r="4" fill="#f4f0ea" opacity="0.1" />
    <circle cx="62" cy="18" r="4" fill="#f4f0ea" opacity="0.1" />
  </g>

  <g transform="translate(854 364)">
    <rect x="0" y="0" width="172" height="186" rx="34" fill="#0b0d0e" stroke="#2a2f32" transform="rotate(-10 86 93)" />
    <rect x="28" y="34" width="116" height="10" rx="5" fill="#f4f0ea" opacity="0.14" transform="rotate(-10 86 93)" />
    <rect x="28" y="56" width="116" height="34" rx="14" fill="#171b1d" transform="rotate(-10 86 93)" />
  </g>

  <g transform="translate(704 358)" font-family="Arial, sans-serif">
    <circle cx="72" cy="80" r="7" fill="#ffd8aa" />
    <circle cx="162" cy="42" r="7" fill="#ffd8aa" />
    <circle cx="244" cy="92" r="7" fill="#ffd8aa" />
    <circle cx="124" cy="150" r="7" fill="#ffd8aa" />
    <path d="M72 80L162 42L244 92L124 150L72 80" fill="none" stroke="url(#warm)" stroke-width="2" opacity="0.8" />
    <text x="54" y="71" font-size="15" fill="#f4f0ea" opacity="0.74">CDN</text>
    <text x="147" y="32" font-size="15" fill="#f4f0ea" opacity="0.74">API</text>
    <text x="226" y="82" font-size="15" fill="#f4f0ea" opacity="0.74">Apps</text>
    <text x="108" y="170" font-size="15" fill="#f4f0ea" opacity="0.74">Data</text>
  </g>
</svg>
